{
    "asset" : {
        "generator" : "Khronos glTF Blender I/O v1.5.17",
        "version" : "2.0"
    },
    "scene" : 0,
    "scenes" : [
        {
            "name" : "Scene",
            "nodes" : [
                0,
                1,
                2,
                3
            ]
        }
    ],
    "nodes" : [
        {
            "mesh" : 0,
            "name" : "Cube",
            "scale" : [
                1.3153479099273682,
                1.3153479099273682,
                1.3153479099273682
            ]
        },
        {
            "mesh" : 1,
            "name" : "Cube.001",
            "scale" : [
                1.3153479099273682,
                1.3153479099273682,
                1.3153479099273682
            ],
            "translation" : [
                0,
                0,
                2.0537002086639404
            ]
        },
        {
            "mesh" : 2,
            "name" : "Plane"
        },
        {
            "mesh" : 3,
            "name" : "BunMaterial",
            "rotation" : [
                0,
                0.999995768070221,
                0,
                -0.002909330418333411
            ],
            "scale" : [
                1.3153479099273682,
                1.3153479099273682,
                1.3153479099273682
            ],
            "translation" : [
                0,
                0,
                6.3446245193481445
            ]
        }
    ],
    "materials" : [
        {
            "doubleSided" : true,
            "name" : "BunMaterial",
            "pbrMetallicRoughness" : {
                "baseColorFactor" : [
                    0.9059998989105225,
                    0.4472324848175049,
                    0.11717644333839417,
                    1
                ],
                "metallicFactor" : 0
            }
        },
        {
            "doubleSided" : true,
            "name" : "MeatMaterial",
            "pbrMetallicRoughness" : {
                "baseColorFactor" : [
                    0.23301564157009125,
                    0.0710316151380539,
                    0.017026755958795547,
                    1
                ],
                "metallicFactor" : 0.06707317382097244,
                "roughnessFactor" : 0.8414634466171265
            }
        },
        {
            "doubleSided" : true,
            "name" : "CheeseMaterial",
            "pbrMetallicRoughness" : {
                "baseColorFactor" : [
                    0.8000000715255737,
                    0.3715798258781433,
                    0,
                    1
                ],
                "metallicFactor" : 0.18292683362960815,
                "roughnessFactor" : 0.908536970615387
            }
        }
    ],
    "meshes" : [
        {
            "name" : "Cube",
            "primitives" : [
                {
                    "attributes" : {
                        "POSITION" : 0,
                        "NORMAL" : 1
                    },
                    "indices" : 2,
                    "material" : 0
                }
            ]
        },
        {
            "name" : "Cube.001",
            "primitives" : [
                {
                    "attributes" : {
                        "POSITION" : 3,
                        "NORMAL" : 4
                    },
                    "indices" : 5,
                    "material" : 1
                }
            ]
        },
        {
            "name" : "Plane",
            "primitives" : [
                {
                    "attributes" : {
                        "POSITION" : 6,
                        "NORMAL" : 7
                    },
                    "indices" : 8,
                    "material" : 2
                }
            ]
        },
        {
            "name" : "Cube.003",
            "primitives" : [
                {
                    "attributes" : {
                        "POSITION" : 9,
                        "NORMAL" : 10
                    },
                    "indices" : 11,
                    "material" : 0
                }
            ]
        }
    ],
    "accessors" : [
        {
            "bufferView" : 0,
            "componentType" : 5126,
            "count" : 14329,
            "max" : [
                3.8837196826934814,
                3.8837196826934814,
                1.8693171739578247
            ],
            "min" : [
                -3.8837196826934814,
                -3.8837196826934814,
                0.18989774584770203
            ],
            "type" : "VEC3"
        },
        {
            "bufferView" : 1,
            "componentType" : 5126,
            "count" : 14329,
            "type" : "VEC3"
        },
        {
            "bufferView" : 2,
            "componentType" : 5123,
            "count" : 21504,
            "type" : "SCALAR"
        },
        {
            "bufferView" : 3,
            "componentType" : 5126,
            "count" : 14336,
            "max" : [
                3.8837196826934814,
                3.8837196826934814,
                1.4620749950408936
            ],
            "min" : [
                -3.8837196826934814,
                -3.8837196826934814,
                0.15221668779850006
            ],
            "type" : "VEC3"
        },
        {
            "bufferView" : 4,
            "componentType" : 5126,
            "count" : 14336,
            "type" : "VEC3"
        },
        {
            "bufferView" : 5,
            "componentType" : 5123,
            "count" : 21504,
            "type" : "SCALAR"
        },
        {
            "bufferView" : 6,
            "componentType" : 5126,
            "count" : 2270,
            "max" : [
                5.223289489746094,
                5.223289489746094,
                4.09851598739624
            ],
            "min" : [
                -5.223289489746094,
                -5.223289489746094,
                1.8049906492233276
            ],
            "type" : "VEC3"
        },
        {
            "bufferView" : 7,
            "componentType" : 5126,
            "count" : 2270,
            "type" : "VEC3"
        },
        {
            "bufferView" : 8,
            "componentType" : 5123,
            "count" : 3456,
            "type" : "SCALAR"
        },
        {
            "bufferView" : 9,
            "componentType" : 5126,
            "count" : 26624,
            "max" : [
                3.898566722869873,
                3.880946397781372,
                2.0175764560699463
            ],
            "min" : [
                -3.8821842670440674,
                -3.9086039066314697,
                0.41377076506614685
            ],
            "type" : "VEC3"
        },
        {
            "bufferView" : 10,
            "componentType" : 5126,
            "count" : 26624,
            "type" : "VEC3"
        },
        {
            "bufferView" : 11,
            "componentType" : 5123,
            "count" : 39936,
            "type" : "SCALAR"
        }
    ],
    "bufferViews" : [
        {
            "buffer" : 0,
            "byteLength" : 171948,
            "byteOffset" : 0
        },
        {
            "buffer" : 0,
            "byteLength" : 171948,
            "byteOffset" : 171948
        },
        {
            "buffer" : 0,
            "byteLength" : 43008,
            "byteOffset" : 343896
        },
        {
            "buffer" : 0,
            "byteLength" : 172032,
            "byteOffset" : 386904
        },
        {
            "buffer" : 0,
            "byteLength" : 172032,
            "byteOffset" : 558936
        },
        {
            "buffer" : 0,
            "byteLength" : 43008,
            "byteOffset" : 730968
        },
        {
            "buffer" : 0,
            "byteLength" : 27240,
            "byteOffset" : 773976
        },
        {
            "buffer" : 0,
            "byteLength" : 27240,
            "byteOffset" : 801216
        },
        {
            "buffer" : 0,
            "byteLength" : 6912,
            "byteOffset" : 828456
        },
        {
            "buffer" : 0,
            "byteLength" : 319488,
            "byteOffset" : 835368
        },
        {
            "buffer" : 0,
            "byteLength" : 319488,
            "byteOffset" : 1154856
        },
        {
            "buffer" : 0,
            "byteLength" : 79872,
            "byteOffset" : 1474344
        }
    ],
    "buffers" : [
        {
            "byteLength" : 1554216,
            "uri" : "data:application/octet-stream;base64,"
        }
    ]
}
