{
    "asset" : {
        "generator" : "Khronos glTF Blender I/O v1.5.17",
        "version" : "2.0"
    },
    "scene" : 0,
    "scenes" : [
        {
            "name" : "Scene",
            "nodes" : [
                0,
                1,
                2,
                3
            ]
        }
    ],
    "nodes" : [
        {
            "mesh" : 0,
            "name" : "Cube",
            "scale" : [
                1.3153479099273682,
                1.3153479099273682,
                1.3153479099273682
            ]
        },
        {
            "mesh" : 1,
            "name" : "Cube.001",
            "scale" : [
                1.3153479099273682,
                1.3153479099273682,
                1.3153479099273682
            ],
            "translation" : [
                0,
                2.0537002086639404,
                0
            ]
        },
        {
            "mesh" : 2,
            "name" : "Plane"
        },
        {
            "mesh" : 3,
            "name" : "BunMaterial",
            "rotation" : [
                0,
                0,
                -0.999995768070221,
                -0.002909330418333411
            ],
            "scale" : [
                1.3153479099273682,
                1.3153479099273682,
                1.3153479099273682
            ],
            "translation" : [
                0,
                6.714786052703857,
                0
            ]
        }
    ],
    "materials" : [
        {
            "doubleSided" : true,
            "name" : "BunMaterial",
            "pbrMetallicRoughness" : {
                "baseColorFactor" : [
                    0.9059998989105225,
                    0.4472324848175049,
                    0.11717644333839417,
                    1
                ],
                "metallicFactor" : 0
            }
        },
        {
            "doubleSided" : true,
            "name" : "MeatMaterial",
            "pbrMetallicRoughness" : {
                "baseColorFactor" : [
                    0.23301564157009125,
                    0.0710316151380539,
                    0.017026755958795547,
                    1
                ],
                "metallicFactor" : 0.06707317382097244,
                "roughnessFactor" : 0.8414634466171265
            }
        },
        {
            "doubleSided" : true,
            "name" : "CheeseMaterial",
            "pbrMetallicRoughness" : {
                "baseColorFactor" : [
                    0.8000000715255737,
                    0.3715798258781433,
                    0,
                    1
                ],
                "metallicFactor" : 0.18292683362960815,
                "roughnessFactor" : 0.908536970615387
            }
        }
    ],
    "meshes" : [
        {
            "name" : "Cube",
            "primitives" : [
                {
                    "attributes" : {
                        "POSITION" : 0,
                        "NORMAL" : 1
                    },
                    "indices" : 2,
                    "material" : 0
                }
            ]
        },
        {
            "name" : "Cube.001",
            "primitives" : [
                {
                    "attributes" : {
                        "POSITION" : 3,
                        "NORMAL" : 4
                    },
                    "indices" : 2,
                    "material" : 1
                }
            ]
        },
        {
            "name" : "Plane",
            "primitives" : [
                {
                    "attributes" : {
                        "POSITION" : 5,
                        "NORMAL" : 6
                    },
                    "indices" : 7,
                    "material" : 2
                }
            ]
        },
        {
            "name" : "Cube.003",
            "primitives" : [
                {
                    "attributes" : {
                        "POSITION" : 8,
                        "NORMAL" : 9
                    },
                    "indices" : 10,
                    "material" : 0
                }
            ]
        }
    ],
    "accessors" : [
        {
            "bufferView" : 0,
            "componentType" : 5126,
            "count" : 3586,
            "max" : [
                3.8837196826934814,
                1.8693171739578247,
                3.8837196826934814
            ],
            "min" : [
                -3.8837196826934814,
                0.18989774584770203,
                -3.8837196826934814
            ],
            "type" : "VEC3"
        },
        {
            "bufferView" : 1,
            "componentType" : 5126,
            "count" : 3586,
            "type" : "VEC3"
        },
        {
            "bufferView" : 2,
            "componentType" : 5123,
            "count" : 21504,
            "type" : "SCALAR"
        },
        {
            "bufferView" : 3,
            "componentType" : 5126,
            "count" : 3586,
            "max" : [
                3.8837196826934814,
                1.4620749950408936,
                3.8837196826934814
            ],
            "min" : [
                -3.8837196826934814,
                0.15221668779850006,
                -3.8837196826934814
            ],
            "type" : "VEC3"
        },
        {
            "bufferView" : 4,
            "componentType" : 5126,
            "count" : 3586,
            "type" : "VEC3"
        },
        {
            "bufferView" : 5,
            "componentType" : 5126,
            "count" : 714,
            "max" : [
                5.223289489746094,
                4.09851598739624,
                5.223289489746094
            ],
            "min" : [
                -5.223289489746094,
                1.8049906492233276,
                -5.223289489746094
            ],
            "type" : "VEC3"
        },
        {
            "bufferView" : 6,
            "componentType" : 5126,
            "count" : 714,
            "type" : "VEC3"
        },
        {
            "bufferView" : 7,
            "componentType" : 5123,
            "count" : 3456,
            "type" : "SCALAR"
        },
        {
            "bufferView" : 8,
            "componentType" : 5126,
            "count" : 6658,
            "max" : [
                3.898566722869873,
                2.0175764560699463,
                3.9086039066314697
            ],
            "min" : [
                -3.8821842670440674,
                0.41377076506614685,
                -3.880946397781372
            ],
            "type" : "VEC3"
        },
        {
            "bufferView" : 9,
            "componentType" : 5126,
            "count" : 6658,
            "type" : "VEC3"
        },
        {
            "bufferView" : 10,
            "componentType" : 5123,
            "count" : 39936,
            "type" : "SCALAR"
        }
    ],
    "bufferViews" : [
        {
            "buffer" : 0,
            "byteLength" : 43032,
            "byteOffset" : 0
        },
        {
            "buffer" : 0,
            "byteLength" : 43032,
            "byteOffset" : 43032
        },
        {
            "buffer" : 0,
            "byteLength" : 43008,
            "byteOffset" : 86064
        },
        {
            "buffer" : 0,
            "byteLength" : 43032,
            "byteOffset" : 129072
        },
        {
            "buffer" : 0,
            "byteLength" : 43032,
            "byteOffset" : 172104
        },
        {
            "buffer" : 0,
            "byteLength" : 8568,
            "byteOffset" : 215136
        },
        {
            "buffer" : 0,
            "byteLength" : 8568,
            "byteOffset" : 223704
        },
        {
            "buffer" : 0,
            "byteLength" : 6912,
            "byteOffset" : 232272
        },
        {
            "buffer" : 0,
            "byteLength" : 79896,
            "byteOffset" : 239184
        },
        {
            "buffer" : 0,
            "byteLength" : 79896,
            "byteOffset" : 319080
        },
        {
            "buffer" : 0,
            "byteLength" : 79872,
            "byteOffset" : 398976
        }
    ],
    "buffers" : [
        {
            "byteLength" : 478848,
            "uri" : "data:application/octet-stream;base64,"
        }
    ]
}
